<?xml version="1.0" encoding="UTF-8"?>
<svg width="32px" height="32px" viewBox="0 0 32 32" version="1.1" xmlns="http://www.w3.org/2000/svg" xmlns:xlink="http://www.w3.org/1999/xlink">
    <!-- Generator: Sketch 47.1 (45422) - http://www.bohemiancoding.com/sketch -->
    <title>in</title>
    <desc>Created with Sketch.</desc>
    <defs>
        <path d="M25.9305556,5.16666667 L6.06944444,5.16666667 C5.52777778,5.16666667 5.16666667,5.52777778 5.16666667,6.06944444 L5.16666667,25.9305556 C5.16666667,26.4722222 5.52777778,26.8333333 6.06944444,26.8333333 L25.9305556,26.8333333 C26.4722222,26.8333333 26.8333333,26.4722222 26.8333333,25.9305556 L26.8333333,6.06944444 C26.8333333,5.52777778 26.4722222,5.16666667 25.9305556,5.16666667 Z M11.5763889,23.6736111 L8.41666667,23.6736111 L8.41666667,13.2916667 L11.6666667,13.2916667 L11.6666667,23.6736111 L11.5763889,23.6736111 Z M9.95138889,11.8472222 C8.95833333,11.8472222 8.05555556,11.0347222 8.05555556,9.95138889 C8.05555556,8.95833333 8.86805556,8.05555556 9.95138889,8.05555556 C10.9444444,8.05555556 11.8472222,8.86805556 11.8472222,9.95138889 C11.8472222,11.0347222 11.0347222,11.8472222 9.95138889,11.8472222 Z M23.6736111,23.6736111 L20.4236111,23.6736111 L20.4236111,18.6180556 C20.4236111,17.4444444 20.4236111,15.9097222 18.7986111,15.9097222 C17.0833333,15.9097222 16.9027778,17.1736111 16.9027778,18.5277778 L16.9027778,23.6736111 L13.6527778,23.6736111 L13.6527778,13.2916667 L16.7222222,13.2916667 L16.7222222,14.7361111 L16.7222222,14.7361111 C17.1736111,13.9236111 18.1666667,13.1111111 19.7916667,13.1111111 C23.0416667,13.1111111 23.6736111,15.2777778 23.6736111,18.0763889 L23.6736111,23.6736111 Z" id="path-1"></path>
    </defs>
    <g id="icon" stroke="none" strokeWidth="1" fill="none" fill-rule="evenodd">
        <g id="in">
            <mask id="mask-2" fill="white">
                <use xlink:href="#path-1"></use>
            </mask>
            <use id="Mask" fill="#fff" xlink:href="#path-1"></use>
        </g>
    </g>
</svg>
