<?xml version="1.0" encoding="UTF-8"?>
<svg width="32px" height="32px" viewBox="0 0 32 32" version="1.1" xmlns="http://www.w3.org/2000/svg" xmlns:xlink="http://www.w3.org/1999/xlink">
    <!-- Generator: Sketch 47.1 (45422) - http://www.bohemiancoding.com/sketch -->
    <title>tw</title>
    <desc>Created with Sketch.</desc>
    <defs>
        <path d="M26.8333333,9.40972222 C26.0208333,9.77083333 25.2083333,10.0416667 24.3055556,10.1319444 C25.2083333,9.59027778 25.9305556,8.6875 26.2916667,7.69444444 C25.3888889,8.23611111 24.4861111,8.59722222 23.4930556,8.77777778 C22.6805556,7.875 21.5069444,7.33333333 20.2430556,7.33333333 C17.8055556,7.33333333 15.8194444,9.31944444 15.8194444,11.7569444 C15.8194444,12.1180556 15.8194444,12.4791667 15.9097222,12.75 C12.1180556,12.5694444 8.86805556,10.7638889 6.70138889,8.05555556 C6.25,8.77777778 6.06944444,9.5 6.06944444,10.3125 C6.06944444,11.8472222 6.88194444,13.2013889 8.05555556,14.0138889 C7.33333333,14.0138889 6.61111111,13.8333333 6.06944444,13.4722222 C6.06944444,13.4722222 6.06944444,13.4722222 6.06944444,13.5625 C6.06944444,15.7291667 7.60416667,17.5347222 9.59027778,17.8958333 C9.22916667,17.9861111 8.86805556,18.0763889 8.41666667,18.0763889 C8.14583333,18.0763889 7.875,18.0763889 7.60416667,17.9861111 C8.14583333,19.7916667 9.77083333,21.0555556 11.7569444,21.0555556 C10.2222222,22.2291667 8.32638889,22.9513889 6.25,22.9513889 C5.88888889,22.9513889 5.52777778,22.9513889 5.16666667,22.8611111 C7.15277778,24.125 9.5,24.8472222 11.9375,24.8472222 C20.1527778,24.8472222 24.5763889,18.0763889 24.5763889,12.2083333 L24.5763889,11.6666667 C25.4791667,11.0347222 26.2013889,10.2222222 26.8333333,9.40972222 Z" id="path-1"></path>
    </defs>
    <g id="icon" stroke="none" strokeWidth="1" fill="none" fill-rule="evenodd">
        <g id="tw">
            <mask id="mask-2" fill="white">
                <use xlink:href="#path-1"></use>
            </mask>
            <use id="Mask" fill="#fff" xlink:href="#path-1"></use>
        </g>
    </g>
</svg>
