<?xml version="1.0" encoding="UTF-8"?>
<svg width="18px" height="18px" viewBox="0 0 18 18" version="1.1" xmlns="http://www.w3.org/2000/svg" xmlns:xlink="http://www.w3.org/1999/xlink">
    <!-- Generator: Sketch 47 (45396) - http://www.bohemiancoding.com/sketch -->
    <title>Youtube</title>
    <desc>Created with Sketch.</desc>
    <defs></defs>
    <g id="Main" stroke="none" stroke-width="1" fill="none" fill-rule="evenodd">
        <g id="List-Less-Initial-Expanded" transform="translate(-375.000000, -576.000000)">
            <g id="Group-23" transform="translate(195.000000, 482.000000)">
                <g id="Group-8">
                    <g id="Youtube" transform="translate(180.000000, 94.000000)">
                        <rect id="Rectangle-4" fill="#CD201F" x="0" y="0" width="18" height="18" rx="1"></rect>
                        <path d="M15.195,6.42857143 C15.195,6.42857143 15.09,5.51785714 14.67,5.14285714 C14.1975,4.60714286 13.6725,4.60714286 13.41,4.60714286 C11.625,4.5 9,4.5 9,4.5 L9,4.5 C9,4.5 6.375,4.5 4.59,4.60714286 C4.3275,4.66071429 3.8025,4.66071429 3.33,5.14285714 C2.9625,5.51785714 2.805,6.42857143 2.805,6.42857143 C2.805,6.42857143 2.7,7.44642857 2.7,8.51785714 L2.7,9.48214286 C2.7,10.5 2.805,11.5714286 2.805,11.5714286 C2.805,11.5714286 2.91,12.4821429 3.33,12.8571429 C3.8025,13.3928571 4.4325,13.3392857 4.695,13.3928571 C5.6925,13.5 9,13.5 9,13.5 C9,13.5 11.625,13.5 13.41,13.3392857 C13.6725,13.2857143 14.1975,13.2857143 14.67,12.8035714 C15.0375,12.4285714 15.195,11.5178571 15.195,11.5178571 C15.195,11.5178571 15.3,10.5 15.3,9.42857143 L15.3,8.46428571 C15.3,7.44642857 15.195,6.42857143 15.195,6.42857143 Z M7.6875,10.6607143 L7.6875,7.07142857 L11.1,8.89285714 L7.6875,10.6607143 Z" id="Mask" fill="#FFFFFF"></path>
                    </g>
                </g>
            </g>
        </g>
    </g>
</svg>